<?xml version="1.0" encoding="UTF-8"?>
<svg width="512" height="512" viewBox="0 0 128 128" xmlns="http://www.w3.org/2000/svg">
  <rect width="128" height="128" fill="none"/>
  <g fill="#000">
    <rect x="28" y="96" width="12" height="6" rx="3"/>
    <rect x="88" y="96" width="12" height="6" rx="3"/>
    <rect x="18" y="42" width="92" height="54" rx="14"/>
    <rect x="34" y="42" width="60" height="6" rx="3"/>
    <rect x="102" y="60" width="6" height="16" rx="3"/>
    <rect x="96" y="62" width="8" height="12" rx="2"/>
    <circle cx="46" cy="72" r="3.5"/>
    <circle cx="67" cy="72" r="3.5"/>
    <path d="M48 78c2.5 5 12.5 5 15 0" stroke="#000" stroke-width="5" fill="none" stroke-linecap="round"/>
    <!-- Bread silhouette -->
    <path d="M64 22c6 0 10 4 10 8v10c0 3-2 5-5 5H59c-3 0-5-2-5-5V30c0-4 4-8 10-8z"/>
  </g>
</svg>
