<?xml version="1.0" encoding="UTF-8"?>
<svg width="512" height="512" viewBox="0 0 128 128" xmlns="http://www.w3.org/2000/svg">
  <defs>
    <linearGradient id="bodyGrad" x1="0" x2="0" y1="0" y2="1">
      <stop offset="0%" stop-color="#6aa6ff"/>
      <stop offset="100%" stop-color="#4d78c9"/>
    </linearGradient>
    <linearGradient id="breadGrad" x1="0" x2="0" y1="0" y2="1">
      <stop offset="0%" stop-color="#ffe1a8"/>
      <stop offset="100%" stop-color="#e5b96b"/>
    </linearGradient>
    <filter id="softShadow" x="-20%" y="-20%" width="140%" height="140%">
      <feDropShadow dx="0" dy="2" stdDeviation="2" flood-color="rgba(0,0,0,0.25)"/>
    </filter>
  </defs>

  <!-- Background clear -->
  <rect width="128" height="128" fill="none"/>

  <!-- Toaster feet -->
  <rect x="28" y="94" width="12" height="6" rx="3" fill="#2c3e50" opacity="0.9"/>
  <rect x="88" y="94" width="12" height="6" rx="3" fill="#2c3e50" opacity="0.9"/>

  <!-- Toaster body -->
  <rect x="18" y="42" width="92" height="54" rx="14" fill="url(#bodyGrad)" filter="url(#softShadow)"/>
  <rect x="22" y="46" width="84" height="46" rx="12" fill="rgba(255,255,255,0.08)"/>

  <!-- Slot -->
  <rect x="34" y="42" width="60" height="6" rx="3" fill="#2b2b2b"/>

  <!-- Bread slice -->
  <g transform="translate(54,22)">
    <path d="M10 0c6 0 10 4 10 8v10c0 3-2 5-5 5H5c-3 0-5-2-5-5V8C0 4 4 0 10 0z" fill="url(#breadGrad)"/>
    <circle cx="9" cy="12" r="1.2" fill="#c58a3a"/>
    <circle cx="13" cy="10" r="1" fill="#c58a3a"/>
    <circle cx="8" cy="8" r="0.9" fill="#c58a3a"/>
  </g>

  <!-- Lever -->
  <rect x="102" y="60" width="6" height="16" rx="3" fill="#243a5a"/>
  <rect x="96" y="62" width="8" height="12" rx="2" fill="#e8edf6"/>

  <!-- Smile (just for fun) -->
  <path d="M48 78c2.5 5 12.5 5 15 0" stroke="#0b1220" stroke-width="3" fill="none" stroke-linecap="round"/>
  <circle cx="46" cy="72" r="2.5" fill="#0b1220"/>
  <circle cx="67" cy="72" r="2.5" fill="#0b1220"/>
</svg>
